<mxfile host="65bd71144e">
    <diagram id="z47dg0KkFd8xvwqWPheL" name="Page-1">
        <mxGraphModel dx="478" dy="241" grid="1" gridSize="10" guides="1" tooltips="1" connect="1" arrows="1" fold="1" page="1" pageScale="1" pageWidth="850" pageHeight="1100" math="0" shadow="0">
            <root>
                <mxCell id="0"/>
                <mxCell id="1" parent="0"/>
                <mxCell id="2" value="" style="rounded=0;whiteSpace=wrap;html=1;" parent="1" vertex="1">
                    <mxGeometry x="10" width="830" height="50" as="geometry"/>
                </mxCell>
                <mxCell id="3" value="" style="rounded=1;whiteSpace=wrap;html=1;" parent="1" vertex="1">
                    <mxGeometry x="10" y="70" width="230" height="280" as="geometry"/>
                </mxCell>
                <mxCell id="4" value="Picture + temp + wind + humidity + UV index" style="rounded=1;whiteSpace=wrap;html=1;" parent="1" vertex="1">
                    <mxGeometry x="250" y="70" width="590" height="130" as="geometry"/>
                </mxCell>
                <mxCell id="5" value="" style="rounded=1;whiteSpace=wrap;html=1;" parent="1" vertex="1">
                    <mxGeometry x="250" y="210" width="590" height="140" as="geometry"/>
                </mxCell>
                <mxCell id="6" value="5-day forecast" style="rounded=0;whiteSpace=wrap;html=1;" parent="1" vertex="1">
                    <mxGeometry x="270" y="210" width="280" height="30" as="geometry"/>
                </mxCell>
                <mxCell id="7" value="" style="rounded=1;whiteSpace=wrap;html=1;" parent="1" vertex="1">
                    <mxGeometry x="270" y="260" width="90" height="80" as="geometry"/>
                </mxCell>
                <mxCell id="8" value="" style="rounded=1;whiteSpace=wrap;html=1;" parent="1" vertex="1">
                    <mxGeometry x="380" y="260" width="90" height="80" as="geometry"/>
                </mxCell>
                <mxCell id="9" value="" style="rounded=1;whiteSpace=wrap;html=1;" parent="1" vertex="1">
                    <mxGeometry x="495" y="260" width="90" height="80" as="geometry"/>
                </mxCell>
                <mxCell id="10" value="" style="rounded=1;whiteSpace=wrap;html=1;" parent="1" vertex="1">
                    <mxGeometry x="610" y="260" width="90" height="80" as="geometry"/>
                </mxCell>
                <mxCell id="11" value="" style="rounded=1;whiteSpace=wrap;html=1;" parent="1" vertex="1">
                    <mxGeometry x="720" y="260" width="90" height="80" as="geometry"/>
                </mxCell>
                <mxCell id="12" value="Search Bar" style="rounded=0;whiteSpace=wrap;html=1;" parent="1" vertex="1">
                    <mxGeometry x="40" y="80" width="170" height="30" as="geometry"/>
                </mxCell>
                <mxCell id="13" value="" style="endArrow=none;dashed=1;html=1;" parent="1" edge="1">
                    <mxGeometry width="50" height="50" relative="1" as="geometry">
                        <mxPoint x="25" y="120" as="sourcePoint"/>
                        <mxPoint x="225" y="120" as="targetPoint"/>
                    </mxGeometry>
                </mxCell>
                <mxCell id="14" value="Suggested locations" style="rounded=0;whiteSpace=wrap;html=1;" parent="1" vertex="1">
                    <mxGeometry x="40" y="130" width="170" height="30" as="geometry"/>
                </mxCell>
                <mxCell id="15" value="" style="rounded=0;whiteSpace=wrap;html=1;" parent="1" vertex="1">
                    <mxGeometry x="40" y="180" width="170" height="30" as="geometry"/>
                </mxCell>
                <mxCell id="16" value="" style="rounded=0;whiteSpace=wrap;html=1;" parent="1" vertex="1">
                    <mxGeometry x="40" y="230" width="170" height="30" as="geometry"/>
                </mxCell>
                <mxCell id="17" value="" style="rounded=0;whiteSpace=wrap;html=1;" parent="1" vertex="1">
                    <mxGeometry x="40" y="275" width="170" height="30" as="geometry"/>
                </mxCell>
            </root>
        </mxGraphModel>
    </diagram>
    <diagram id="-pPDKp8qrFWQK6KgAZA-" name="Page-2">
        <mxGraphModel dx="1328" dy="3541" grid="1" gridSize="10" guides="1" tooltips="1" connect="1" arrows="1" fold="1" page="1" pageScale="1" pageWidth="850" pageHeight="1100" math="0" shadow="0">
            <root>
                <mxCell id="4P1bsDxq8_wc1WZLHF5V-0"/>
                <mxCell id="4P1bsDxq8_wc1WZLHF5V-1" parent="4P1bsDxq8_wc1WZLHF5V-0"/>
                <mxCell id="T1NN2IqESO5nwCkuGdJa-2" value="&lt;h2 class=&quot;code-line&quot; dir=&quot;auto&quot; id=&quot;acceptance-criteria&quot; style=&quot;text-align: justify ; margin-top: 0px ; font-weight: normal ; margin-bottom: 0.2em ; position: relative ; color: rgb(212 , 212 , 212)&quot;&gt;Acceptance Criteria&lt;/h2&gt;&lt;pre style=&quot;margin-top: 0px ; padding: 16px ; border-radius: 3px ; overflow: auto ; background-color: rgba(10 , 10 , 10 , 0.4) ; color: rgb(212 , 212 , 212) ; font-size: 14px&quot;&gt;&lt;p style=&quot;text-align: justify ; line-height: 1.6&quot;&gt;&lt;span style=&quot;font-size: 1em ; font-family: &amp;#34;helvetica&amp;#34;&quot;&gt;GIVEN a weather dashboard with form inputs&lt;br&gt;&lt;/span&gt;&lt;span style=&quot;font-size: 1em ; font-family: &amp;#34;helvetica&amp;#34;&quot;&gt;WHEN I search for a city&lt;br&gt;&lt;/span&gt;&lt;span style=&quot;font-size: 1em ; font-family: &amp;#34;helvetica&amp;#34;&quot;&gt;THEN I am presented with current and future conditions for that city and that city is added to the search history&lt;br&gt;&lt;/span&gt;&lt;span style=&quot;font-size: 1em ; font-family: &amp;#34;helvetica&amp;#34;&quot;&gt;WHEN I view current weather conditions for that city&lt;br&gt;&lt;/span&gt;&lt;span style=&quot;font-size: 1em ; font-family: &amp;#34;helvetica&amp;#34;&quot;&gt;THEN I am presented with the city name, the date, an icon representation of weather conditions, the temperature, the humidity, the wind speed, and the UV index&lt;br&gt;&lt;/span&gt;&lt;span style=&quot;font-size: 1em ; font-family: &amp;#34;helvetica&amp;#34;&quot;&gt;WHEN I view the UV index&lt;br&gt;&lt;/span&gt;&lt;span style=&quot;font-size: 1em ; font-family: &amp;#34;helvetica&amp;#34;&quot;&gt;THEN I am presented with a color that indicates whether the conditions are favorable, moderate, or severe&lt;br&gt;&lt;/span&gt;&lt;span style=&quot;font-size: 1em ; font-family: &amp;#34;helvetica&amp;#34;&quot;&gt;WHEN I view future weather conditions for that city&lt;br&gt;&lt;/span&gt;&lt;span style=&quot;font-size: 1em ; font-family: &amp;#34;helvetica&amp;#34;&quot;&gt;THEN I am presented with a 5-day forecast that displays the date, an icon representation of weather conditions, the temperature, the wind speed, and the humidity&lt;br&gt;&lt;/span&gt;&lt;span style=&quot;font-size: 1em ; font-family: &amp;#34;helvetica&amp;#34;&quot;&gt;WHEN I click on a city in the search history&lt;br&gt;&lt;/span&gt;&lt;span style=&quot;font-size: 1em ; font-family: &amp;#34;helvetica&amp;#34;&quot;&gt;THEN I am again presented with current and future conditions for that city&lt;/span&gt;&lt;/p&gt;&lt;/pre&gt;" style="rounded=0;whiteSpace=wrap;html=1;" parent="4P1bsDxq8_wc1WZLHF5V-1" vertex="1">
                    <mxGeometry x="-830" y="-3280" width="1040" height="390" as="geometry"/>
                </mxCell>
            </root>
        </mxGraphModel>
    </diagram>
</mxfile>